<svg width="7" height="7" viewBox="0 0 7 7" fill="none" xmlns="http://www.w3.org/2000/svg">
<path d="M6.85698 2.97677C6.75034 2.25762 6.42224 1.60583 5.90817 1.09176C5.3941 0.577712 4.7423 0.249587 4.02318 0.142976C3.69576 0.0944312 3.36379 0.0944312 3.0364 0.142976C2.14765 0.274783 1.36346 0.744763 0.828236 1.46637C0.293011 2.18799 0.0707944 3.07486 0.202601 3.96355C0.334408 4.85227 0.804388 5.63646 1.526 6.17172C2.11182 6.60622 2.80645 6.83438 3.52267 6.83438C3.68869 6.83438 3.85592 6.82214 4.02315 6.79732C4.9119 6.66551 5.69609 6.19553 6.23131 5.47392C6.76657 4.75234 6.98878 3.8655 6.85698 2.97677ZM3.8454 5.59858C3.2769 5.68301 2.70956 5.54078 2.24793 5.19839C1.7863 4.85599 1.48566 4.35431 1.40137 3.78581C1.31705 3.2173 1.45917 2.64997 1.80157 2.18834C2.14399 1.72671 2.64564 1.42606 3.21417 1.34175C3.31888 1.32622 3.42432 1.31845 3.52976 1.31845C3.6352 1.31845 3.74067 1.32622 3.84537 1.34177C4.78964 1.48178 5.51817 2.21028 5.65821 3.15458C5.83223 4.32815 5.01904 5.42456 3.8454 5.59858Z" fill="white"/>
</svg>
