<svg width="19" height="15" viewBox="0 0 19 15" fill="none" xmlns="http://www.w3.org/2000/svg">
<path d="M18.75 1.77474C18.0599 2.0759 17.3194 2.28015 16.5414 2.37133C17.3358 1.90282 17.9439 1.1597 18.2321 0.276936C17.4869 0.710806 16.6644 1.02585 15.788 1.19663C15.0862 0.459276 14.088 0 12.9807 0C10.8565 0 9.13418 1.69628 9.13418 3.78721C9.13418 4.08376 9.16815 4.3734 9.23378 4.65037C6.03751 4.49225 3.20328 2.98407 1.30637 0.692339C0.974787 1.25086 0.786153 1.90165 0.786153 2.59634C0.786153 3.91068 1.46572 5.07039 2.49679 5.74888C1.86642 5.72812 1.27356 5.55733 0.754535 5.27346V5.32077C0.754535 7.15552 2.08085 8.68678 3.8395 9.03529C3.51728 9.12068 3.17752 9.168 2.82602 9.168C2.57764 9.168 2.33744 9.14377 2.10193 9.0976C2.59167 10.6035 4.01174 11.6986 5.69425 11.7286C4.37847 12.7441 2.7194 13.3476 0.917403 13.3476C0.606925 13.3476 0.301103 13.3291 0 13.2956C1.70242 14.3723 3.72353 15 5.89578 15C12.9714 15 16.8391 9.22801 16.8391 4.22226L16.8262 3.73184C17.5819 3.20099 18.2356 2.53403 18.75 1.77474Z" fill="white"/>
</svg>
